<?xml version="1.0" encoding="utf-8"?>
<!-- Generator: Adobe Illustrator 16.0.0, SVG Export Plug-In . SVG Version: 6.00 Build 0)  -->
<!DOCTYPE svg PUBLIC "-//W3C//DTD SVG 1.1//EN" "http://www.w3.org/Graphics/SVG/1.1/DTD/svg11.dtd">
<svg version="1.1" id="Layer_1" xmlns="http://www.w3.org/2000/svg" xmlns:xlink="http://www.w3.org/1999/xlink" x="0px" y="0px"
	 width="56.693px" height="56.693px" viewBox="-3.699 -0.738 56.693 56.693" enable-background="new -3.699 -0.738 56.693 56.693"
	 xml:space="preserve">
<g id="Group_37996" transform="translate(0)">
	<path id="Path_316589" fill="#FFFFFF" d="M19.01,27.431l-1.093,6.089l5.833-2.918c0.566-0.285,1.234-0.285,1.8,0l5.807,2.914
		l-1.065-6.085c-0.119-0.659,0.106-1.333,0.601-1.786l4.606-4.292l-6.437-0.887c-0.641-0.088-1.197-0.481-1.494-1.054l-2.9-5.6
		v-0.006l-2.928,5.611c-0.298,0.573-0.855,0.966-1.495,1.054l-6.423,0.887l4.6,4.287C18.91,26.101,19.132,26.774,19.01,27.431z"/>
	<path id="Path_316590" fill="#FFFFFF" d="M24.647,43.38c10.345,0,18.732-8.387,18.732-18.732S34.992,5.916,24.647,5.916
		S5.915,14.303,5.915,24.648l0,0C5.915,34.993,14.302,43.38,24.647,43.38z M11.922,20.77c0.23-0.731,0.863-1.264,1.623-1.364
		l6.424-0.892l2.908-5.61c0.515-0.977,1.725-1.352,2.702-0.837c0.357,0.188,0.648,0.48,0.837,0.837l2.899,5.6l6.438,0.9
		c0.76,0.101,1.393,0.633,1.622,1.364c0.232,0.723,0.022,1.515-0.538,2.028l-4.608,4.293l1.101,6.082
		c0.134,0.734-0.163,1.479-0.763,1.923c-0.605,0.454-1.417,0.526-2.092,0.183l-5.801-2.914l-5.845,2.916
		c-0.676,0.343-1.488,0.271-2.094-0.184c-0.599-0.443-0.895-1.188-0.762-1.921l1.093-6.091l-4.608-4.285
		C11.899,22.285,11.69,21.493,11.922,20.77z"/>
	<path id="Path_316591" fill="#FFFFFF" d="M24.648,49.3c13.613,0,24.648-11.035,24.648-24.648S38.261,0.004,24.648,0.004
		C11.037,0.004,0.002,11.037,0,24.648C-0.002,38.261,11.031,49.298,24.644,49.3C24.646,49.3,24.646,49.3,24.648,49.3z M24.648,3.948
		c11.432,0,20.701,9.268,20.701,20.7S36.08,45.349,24.648,45.349s-20.7-9.269-20.7-20.701C3.946,13.216,13.212,3.946,24.644,3.944
		c0.001,0,0.002,0,0.004,0V3.948z"/>
	<path id="Path_316592" fill="#FFFFFF" d="M24.647,51.267C14.38,51.258,5.031,45.352,0.612,36.084
		c3.053,13.274,16.289,21.561,29.563,18.507c9.205-2.116,16.392-9.303,18.508-18.507C44.265,45.353,34.915,51.258,24.647,51.267z"/>
</g>
</svg>
