<?xml version="1.0" encoding="utf-8"?>
<!-- Generator: Adobe Illustrator 16.0.0, SVG Export Plug-In . SVG Version: 6.00 Build 0)  -->
<!DOCTYPE svg PUBLIC "-//W3C//DTD SVG 1.1//EN" "http://www.w3.org/Graphics/SVG/1.1/DTD/svg11.dtd">
<svg version="1.1" id="Layer_1" xmlns="http://www.w3.org/2000/svg" xmlns:xlink="http://www.w3.org/1999/xlink" x="0px" y="0px"
	 width="56.693px" height="56.693px" viewBox="-9.993 -4.187 56.693 56.693" enable-background="new -9.993 -4.187 56.693 56.693"
	 xml:space="preserve">
<g>
	<g id="Group_37970">
		<path id="Path_327727" fill="#FFFFFF" d="M0.977,38.196c0-3.265,0.155-6.374,3.298-6.684c10.369-1.555,9.601-6.062,9.755-7.306
			c-3.211-1.746-4.413-9.015-4.413-9.015C9.617,7.732,12.916,3.379,18.729,3.379c5.814,0,9.426,4.042,9.426,10.883
			c0,7.677-4.617,9.678-4.617,9.678c0,5.125,4.617,6.637,9.176,8.037c4.559,1.399,2.669,6.22,2.669,6.22
			c-0.254,0.183-8.16,6.365-26.526,6.743c-2.601,0.016-5.201-0.151-7.78-0.505L0.977,38.196z"/>
	</g>
</g>
</svg>
