<?xml version="1.0" encoding="utf-8"?>
<!-- Generator: Adobe Illustrator 16.0.0, SVG Export Plug-In . SVG Version: 6.00 Build 0)  -->
<!DOCTYPE svg PUBLIC "-//W3C//DTD SVG 1.1//EN" "http://www.w3.org/Graphics/SVG/1.1/DTD/svg11.dtd">
<svg version="1.1" id="Layer_1" xmlns="http://www.w3.org/2000/svg" xmlns:xlink="http://www.w3.org/1999/xlink" x="0px" y="0px"
	 width="56.693px" height="56.693px" viewBox="3.394 -2.067 56.693 56.693" enable-background="new 3.394 -2.067 56.693 56.693"
	 xml:space="preserve">
<g id="Group_37995" transform="translate(0 0)">
	<path id="Path_194" fill="#FFFFFF" d="M35.999,22.287l7.008-2.376c0.196-0.065,0.351-0.219,0.413-0.415l2.23-6.904
		c0.116-0.346,0.493-0.533,0.839-0.417c0.121,0.042,0.229,0.118,0.309,0.219l4.42,5.75c0.127,0.163,0.323,0.256,0.529,0.252
		l7.399-0.121c0.352-0.014,0.643,0.26,0.657,0.61c0.006,0.139-0.036,0.277-0.117,0.393l-4.274,5.929
		c-0.12,0.165-0.151,0.379-0.087,0.571l2.343,6.83c0.109,0.343-0.079,0.708-0.422,0.816c-0.126,0.04-0.264,0.04-0.39,0l-7.065-2.084
		c-0.199-0.059-0.416-0.022-0.585,0.102l-5.949,4.339c-0.285,0.216-0.695,0.16-0.91-0.126c-0.08-0.106-0.128-0.234-0.131-0.367
		l-0.092-7.221c-0.003-0.205-0.104-0.394-0.273-0.509l-6.018-4.147c-0.289-0.198-0.359-0.593-0.159-0.881
		C35.751,22.416,35.868,22.33,35.999,22.287z"/>
	<path id="Path_195" fill="#FFFFFF" d="M6.913,41.601l6.093-6.708c0.17-0.187,0.244-0.442,0.196-0.691l-1.715-8.717
		c-0.081-0.44,0.211-0.863,0.651-0.944c0.154-0.027,0.313-0.012,0.459,0.05l8.153,3.529c0.23,0.102,0.498,0.084,0.716-0.043
		l7.852-4.527c0.366-0.221,0.843-0.104,1.065,0.263c0.088,0.147,0.126,0.319,0.107,0.49l-1.054,8.89
		c-0.03,0.248,0.062,0.494,0.247,0.66l6.565,5.925c0.32,0.301,0.336,0.806,0.033,1.125c-0.113,0.118-0.26,0.2-0.418,0.233
		l-8.805,1.964c-0.248,0.054-0.455,0.224-0.563,0.453l-3.793,8.187c-0.18,0.401-0.649,0.583-1.052,0.405
		c-0.148-0.066-0.273-0.178-0.359-0.316l-4.387-7.681c-0.125-0.213-0.345-0.358-0.595-0.38l-8.91-0.861
		c-0.426-0.043-0.737-0.424-0.694-0.85C6.721,41.886,6.795,41.725,6.913,41.601z"/>
	<path id="Path_196" fill="#FFFFFF" d="M16.927,11.136l4.515-3.128c0.126-0.086,0.204-0.228,0.208-0.381l0.179-5.382
		c0.016-0.274,0.248-0.482,0.52-0.468c0.093,0.004,0.183,0.037,0.258,0.09l4.333,3.199c0.124,0.089,0.28,0.117,0.428,0.071
		l5.255-1.6c0.247-0.081,0.512,0.055,0.593,0.302c0.032,0.098,0.03,0.204-0.004,0.303l-1.836,5.106
		c-0.052,0.142-0.029,0.301,0.056,0.425l3.068,4.395c0.146,0.222,0.086,0.521-0.137,0.667c-0.083,0.054-0.178,0.082-0.277,0.08
		l-5.464-0.039c-0.154-0.001-0.302,0.07-0.395,0.191l-3.36,4.312c-0.162,0.212-0.464,0.254-0.676,0.094
		c-0.079-0.06-0.137-0.142-0.167-0.234l-1.544-5.133c-0.044-0.144-0.155-0.259-0.299-0.307l-5.146-1.724
		c-0.245-0.082-0.379-0.349-0.294-0.597C16.774,11.28,16.84,11.194,16.927,11.136z"/>
</g>
</svg>
